<mxfile host="Electron" modified="2023-02-01T19:11:01.474Z" agent="5.0 (Windows NT 10.0; Win64; x64) AppleWebKit/537.36 (KHTML, like Gecko) draw.io/15.7.3 Chrome/91.0.4472.164 Electron/13.6.1 Safari/537.36" etag="r3l3yDa47FnoYzGdZob5" compressed="false" version="15.7.3" type="device" pages="2">
  <diagram id="AoaWS-nBgNANdqFX4hnN" name="Newton Laws of Dynamics">
    <mxGraphModel dx="1102" dy="1025" grid="1" gridSize="10" guides="1" tooltips="1" connect="1" arrows="1" fold="1" page="1" pageScale="1" pageWidth="850" pageHeight="1100" math="0" shadow="0">
      <root>
        <mxCell id="0" />
        <mxCell id="1" parent="0" />
        <UserObject label="%Name%" placeholders="1" Name="Position" Doc="The position of an object" Units="m" _initial="10" _equation=" Speed" _pysd_type="IntegStructure" id="3mpkzr2aiVaWu9UwHeaH-1">
          <mxCell style="rounded=0;whiteSpace=wrap;html=1;" parent="1" vertex="1">
            <mxGeometry x="300" y="240" width="80" height="20" as="geometry" />
          </mxCell>
        </UserObject>
        <UserObject label="%Name%" placeholders="1" Name="Speed" Doc="The speed of an object" Units="m/s" _initial="3" _equation=" Acceleration" _pysd_type="IntegStructure" id="3mpkzr2aiVaWu9UwHeaH-2">
          <mxCell style="rounded=0;whiteSpace=wrap;html=1;" parent="1" vertex="1">
            <mxGeometry x="500" y="240" width="80" height="20" as="geometry" />
          </mxCell>
        </UserObject>
        <mxCell id="3mpkzr2aiVaWu9UwHeaH-3" value="" style="endArrow=classic;html=1;rounded=0;" parent="1" source="3mpkzr2aiVaWu9UwHeaH-2" target="3mpkzr2aiVaWu9UwHeaH-1" edge="1">
          <mxGeometry width="50" height="50" relative="1" as="geometry">
            <mxPoint x="350" y="360" as="sourcePoint" />
            <mxPoint x="400" y="310" as="targetPoint" />
          </mxGeometry>
        </mxCell>
        <mxCell id="3mpkzr2aiVaWu9UwHeaH-6" style="edgeStyle=orthogonalEdgeStyle;rounded=0;orthogonalLoop=1;jettySize=auto;html=1;" parent="1" source="3mpkzr2aiVaWu9UwHeaH-5" target="3mpkzr2aiVaWu9UwHeaH-2" edge="1">
          <mxGeometry relative="1" as="geometry" />
        </mxCell>
        <UserObject label="%Name%" placeholders="1" Name="Acceleration" Doc="" Units="m/s^2" _equation=" Sum of Forces /  Mass " _pysd_type="AbstractElement" _initial="" id="3mpkzr2aiVaWu9UwHeaH-5">
          <mxCell style="text;html=1;strokeColor=none;fillColor=none;align=center;verticalAlign=middle;whiteSpace=wrap;overflow=hidden;" parent="1" vertex="1">
            <mxGeometry x="510" y="330" width="80" height="20" as="geometry" />
          </mxCell>
        </UserObject>
        <mxCell id="3mpkzr2aiVaWu9UwHeaH-8" style="edgeStyle=orthogonalEdgeStyle;rounded=0;orthogonalLoop=1;jettySize=auto;html=1;" parent="1" source="3mpkzr2aiVaWu9UwHeaH-7" target="3mpkzr2aiVaWu9UwHeaH-5" edge="1">
          <mxGeometry relative="1" as="geometry" />
        </mxCell>
        <UserObject label="%Name%" placeholders="1" Name="Sum of Forces" Doc="The sum of all the forces applied on the system" Units="N" _equation="" _pysd_type="AbstractUnchangeableConstant" _initial="12" id="3mpkzr2aiVaWu9UwHeaH-7">
          <mxCell style="text;html=1;strokeColor=none;fillColor=none;align=center;verticalAlign=middle;whiteSpace=wrap;overflow=hidden;" parent="1" vertex="1">
            <mxGeometry x="425" y="460" width="100" height="50" as="geometry" />
          </mxCell>
        </UserObject>
        <mxCell id="3mpkzr2aiVaWu9UwHeaH-10" style="edgeStyle=orthogonalEdgeStyle;rounded=0;orthogonalLoop=1;jettySize=auto;html=1;" parent="1" source="3mpkzr2aiVaWu9UwHeaH-9" target="3mpkzr2aiVaWu9UwHeaH-5" edge="1">
          <mxGeometry relative="1" as="geometry" />
        </mxCell>
        <UserObject label="%Name%" placeholders="1" Name="Mass" Doc="The mass of the object" Units="kg" _initial="5" _pysd_type="AbstractUnchangeableConstant" _equation="" id="3mpkzr2aiVaWu9UwHeaH-9">
          <mxCell style="text;html=1;strokeColor=none;fillColor=none;align=center;verticalAlign=middle;whiteSpace=wrap;overflow=hidden;" parent="1" vertex="1">
            <mxGeometry x="410" y="300" width="80" height="20" as="geometry" />
          </mxCell>
        </UserObject>
        <UserObject label="%Name%" placeholders="1" Name="INITIAL TIME" Doc="Initial time of the simulation" Units="-" _initial="0" _pysd_type="ControlVar" id="4bJ__VqqVpmFO_mfCelv-1">
          <mxCell style="text;html=1;strokeColor=none;fillColor=none;align=center;verticalAlign=middle;whiteSpace=wrap;overflow=hidden;" parent="1" vertex="1">
            <mxGeometry x="140" y="80" width="80" height="20" as="geometry" />
          </mxCell>
        </UserObject>
        <UserObject label="%Name%" placeholders="1" Name="FINAL TIME" Doc="Final time of the simulation" Units="-" _initial="10" _pysd_type="ControlVar" id="4bJ__VqqVpmFO_mfCelv-2">
          <mxCell style="text;html=1;strokeColor=none;fillColor=none;align=center;verticalAlign=middle;whiteSpace=wrap;overflow=hidden;" parent="1" vertex="1">
            <mxGeometry x="220" y="80" width="80" height="20" as="geometry" />
          </mxCell>
        </UserObject>
        <UserObject label="%Name%" placeholders="1" Name="TIME STEP" Doc="Time step of the simulation" Units="-" _initial="0.25" _pysd_type="ControlVar" id="4bJ__VqqVpmFO_mfCelv-3">
          <mxCell style="text;html=1;strokeColor=none;fillColor=none;align=center;verticalAlign=middle;whiteSpace=wrap;overflow=hidden;" parent="1" vertex="1">
            <mxGeometry x="300" y="80" width="80" height="20" as="geometry" />
          </mxCell>
        </UserObject>
        <UserObject label="%Name%" placeholders="1" Name="SAVEPER" Doc="The frequency with which output is stored." Units="-" _initial="1" _pysd_type="ControlVar" id="4bJ__VqqVpmFO_mfCelv-4">
          <mxCell style="text;html=1;strokeColor=none;fillColor=none;align=center;verticalAlign=middle;whiteSpace=wrap;overflow=hidden;" parent="1" vertex="1">
            <mxGeometry x="380" y="80" width="80" height="20" as="geometry" />
          </mxCell>
        </UserObject>
        <mxCell id="RDFWN2bggInayl-ZKFdH-5" style="edgeStyle=orthogonalEdgeStyle;rounded=0;orthogonalLoop=1;jettySize=auto;html=1;" edge="1" parent="1" source="RDFWN2bggInayl-ZKFdH-1" target="3mpkzr2aiVaWu9UwHeaH-1">
          <mxGeometry relative="1" as="geometry" />
        </mxCell>
        <mxCell id="RDFWN2bggInayl-ZKFdH-6" style="edgeStyle=orthogonalEdgeStyle;rounded=0;orthogonalLoop=1;jettySize=auto;html=1;" edge="1" parent="1" source="RDFWN2bggInayl-ZKFdH-1" target="3mpkzr2aiVaWu9UwHeaH-7">
          <mxGeometry relative="1" as="geometry">
            <Array as="points">
              <mxPoint x="740" y="485" />
            </Array>
          </mxGeometry>
        </mxCell>
        <mxCell id="RDFWN2bggInayl-ZKFdH-7" style="edgeStyle=orthogonalEdgeStyle;rounded=0;orthogonalLoop=1;jettySize=auto;html=1;" edge="1" parent="1" source="RDFWN2bggInayl-ZKFdH-1" target="3mpkzr2aiVaWu9UwHeaH-2">
          <mxGeometry relative="1" as="geometry">
            <Array as="points">
              <mxPoint x="670" y="380" />
              <mxPoint x="670" y="250" />
            </Array>
          </mxGeometry>
        </mxCell>
        <mxCell id="RDFWN2bggInayl-ZKFdH-8" style="edgeStyle=orthogonalEdgeStyle;rounded=0;orthogonalLoop=1;jettySize=auto;html=1;" edge="1" parent="1" source="RDFWN2bggInayl-ZKFdH-1" target="3mpkzr2aiVaWu9UwHeaH-5">
          <mxGeometry relative="1" as="geometry" />
        </mxCell>
        <UserObject label="%Name%" placeholders="1" Name="Space Dimensions" Doc="The dimension of the space" Units="-" _pysd_type="Subscript" _equation="" _initial="" id="RDFWN2bggInayl-ZKFdH-1">
          <mxCell style="swimlane;fontStyle=0;childLayout=stackLayout;horizontal=1;startSize=30;horizontalStack=0;resizeParent=1;resizeParentMax=0;resizeLast=0;collapsible=1;marginBottom=0;whiteSpace=wrap;html=1;" vertex="1" parent="1">
            <mxGeometry x="690" y="320" width="100" height="120" as="geometry" />
          </mxCell>
        </UserObject>
        <mxCell id="RDFWN2bggInayl-ZKFdH-2" value="x" style="text;strokeColor=none;fillColor=none;align=left;verticalAlign=middle;spacingLeft=4;spacingRight=4;overflow=hidden;points=[[0,0.5],[1,0.5]];portConstraint=eastwest;rotatable=0;whiteSpace=wrap;html=1" vertex="1" parent="RDFWN2bggInayl-ZKFdH-1">
          <mxGeometry y="30" width="100" height="30" as="geometry" />
        </mxCell>
        <mxCell id="RDFWN2bggInayl-ZKFdH-3" value="y" style="text;strokeColor=none;fillColor=none;align=left;verticalAlign=middle;spacingLeft=4;spacingRight=4;overflow=hidden;points=[[0,0.5],[1,0.5]];portConstraint=eastwest;rotatable=0;whiteSpace=wrap;html=1" vertex="1" parent="RDFWN2bggInayl-ZKFdH-1">
          <mxGeometry y="60" width="100" height="30" as="geometry" />
        </mxCell>
        <mxCell id="RDFWN2bggInayl-ZKFdH-4" value="z" style="text;strokeColor=none;fillColor=none;align=left;verticalAlign=middle;spacingLeft=4;spacingRight=4;overflow=hidden;points=[[0,0.5],[1,0.5]];portConstraint=eastwest;rotatable=0;whiteSpace=wrap;html=1" vertex="1" parent="RDFWN2bggInayl-ZKFdH-1">
          <mxGeometry y="90" width="100" height="30" as="geometry" />
        </mxCell>
      </root>
    </mxGraphModel>
  </diagram>
  <diagram id="VEczfKAvQokg2N6_DQql" name="Forces">
    <mxGraphModel dx="1372" dy="841" grid="1" gridSize="10" guides="1" tooltips="1" connect="1" arrows="1" fold="1" page="1" pageScale="1" pageWidth="850" pageHeight="1100" math="0" shadow="0">
      <root>
        <mxCell id="0" />
        <mxCell id="1" parent="0" />
        <UserObject label="&lt; %Name% &gt;" placeholders="1" Name="new_reference" _pysd_type="Reference" id="__LAEXAuI7V0T_CHNUez-1">
          <mxCell style="text;html=1;strokeColor=none;fillColor=none;align=center;verticalAlign=middle;whiteSpace=wrap;overflow=hidden;textOpacity=70;" vertex="1" parent="1">
            <mxGeometry x="240" y="350" width="110" height="30" as="geometry" />
          </mxCell>
        </UserObject>
      </root>
    </mxGraphModel>
  </diagram>
</mxfile>
